<svg xmlns="http://www.w3.org/2000/svg" width="287" height="259" viewBox="0 0 287 259" fill="none"><path d="M196.311 62.1159C189.53 63.4734 182.916 67.0055 179.568 74.7149C179.622 74.7694 180.765 74.2289 182.607 73.5208C183.699 73.0878 184.854 72.8318 186.027 72.7624C190.69 72.7624 194.654 76.1143 194.654 82.2651C194.654 89.0527 188.957 95.191 181.142 95.191C174.251 95.191 170.509 90.6281 170.509 83.7316C170.509 75.0417 176.788 65.539 188.848 61.5754C191.153 60.7827 193.54 60.2542 195.964 60L196.311 62.1159ZM178.789 77.1618C178.082 78.9509 177.487 81.4481 177.487 85.1226C177.487 90.1714 178.952 92.941 182.046 92.941C185.788 92.941 187.525 87.7832 187.525 83.7651C187.525 79.0389 185.57 76.3238 182.046 76.3238C180.912 76.3605 179.8 76.6466 178.789 77.1618Z" fill="white"></path><path d="M201.464 95.191C199.242 95.191 197.668 93.4521 197.668 91.1142C197.668 88.3991 199.568 86.3377 202.172 86.3377C204.449 86.3377 206.023 88.0137 206.023 90.5276C206.043 91.137 205.94 91.7442 205.719 92.3126C205.499 92.881 205.165 93.3988 204.739 93.8346C204.313 94.2704 203.804 94.6153 203.241 94.8484C202.678 95.0816 202.073 95.1981 201.464 95.191Z" fill="white"></path><path d="M217.685 63.2598C218.738 62.2106 219.992 61.3856 221.372 60.8348C222.751 60.2839 224.228 60.0184 225.714 60.0545C231.088 60.0545 235.103 63.6368 235.103 69.2722C235.103 75.247 231.247 78.3434 222.407 85.1939L217.63 88.8851H226.53C229.728 88.8851 230.435 88.4662 232.876 84.976L234.667 85.6254C233.529 88.3405 232.009 91.8726 231.139 94.5331H209.112L209.384 93.0122C221.482 82.747 227.941 77.3169 227.941 70.6382C227.941 67.1647 226.149 64.9357 222.733 64.9357C219.422 64.9357 217.291 67.0558 215.353 69.444L213.943 68.0321L217.685 63.2598Z" fill="white"></path><path d="M267.381 61.412C261.035 71.9999 253.818 83.1995 246.819 94.5373L240.632 95.1909L240.306 94.3739C248.012 85.3614 255.714 75.423 261.411 66.5698H249.691C246.38 66.5698 245.676 66.951 243.939 70.1019L242.039 69.4482C243.295 66.0963 244.157 63.0419 244.806 60.7039H266.991L267.381 61.412Z" fill="white"></path><path d="M139.695 113.3C139.772 113.224 139.527 112.637 140.291 113.347L140.094 113.491L140.489 113.592V113.203C140.905 113.152 140.887 113.383 141.084 113.531C141.125 113.56 141.223 113.502 141.26 113.531C141.296 113.56 141.216 113.733 141.377 113.69C141.406 113.361 141.816 113.246 142.108 113.304C142.134 113.304 142.276 113.621 142.569 113.452C142.759 113.343 142.404 113.033 142.715 113.113C142.919 113.16 142.967 113.365 142.982 113.372C142.996 113.379 143.278 113.242 143.347 113.448C143.38 113.531 143.161 113.47 143.146 113.545C143.051 114.021 143.57 113.762 143.844 113.787C143.713 113.571 143.504 113.394 143.548 113.109C143.698 113.077 143.621 113.239 143.716 113.304C143.811 113.369 144.301 113.664 144.447 113.545L144.25 113.304C144.586 113.304 144.886 113.304 145.091 113.596L145.142 113.3C145.369 113.488 145.321 113.239 145.387 113.224C145.776 113.269 146.158 113.361 146.524 113.498C146.33 112.839 146.805 113.235 146.97 113.596L147.021 113.206C147.233 113.297 147.259 113.498 147.522 113.567C147.785 113.635 148.253 113.448 148.008 113.206C148.158 113.329 148.564 113.206 148.589 113.206C148.615 113.206 148.702 113.567 148.955 113.462C149.013 113.437 149.002 113.282 149.053 113.279C149.254 113.279 149.448 113.545 149.547 113.545C149.646 113.545 149.806 113.307 149.993 113.383L150.044 113.87C150.497 113.967 150.179 113.509 150.34 113.286C150.647 113.534 151.071 113.534 151.327 113.866C151.327 113.7 151.554 113.405 151.726 113.405C151.802 113.405 151.886 113.589 151.974 113.628C152.062 113.668 152.23 113.574 152.256 113.596C152.281 113.617 152.197 113.812 152.365 113.769C152.413 113.336 153.02 113.47 153.06 113.866C153.232 113.917 153.111 113.628 153.206 113.675C153.301 113.722 153.323 113.827 153.433 113.852C153.542 113.877 154.347 113.935 154.431 113.985C154.515 114.036 154.5 114.23 154.595 114.256C154.807 114.317 154.961 113.675 155.037 114.548L155.334 114.256C155.268 114.569 155.491 114.566 155.681 114.742C155.571 113.971 156.163 115.139 155.977 114.256L156.372 115.031L156.423 114.742L156.569 114.933L156.935 114.645C156.894 114.937 157.117 114.739 157.26 114.829C157.403 114.919 157.388 115.103 157.472 115.114C157.556 115.124 157.786 114.948 157.878 114.941C157.969 114.933 157.911 115.088 157.998 115.121C158.156 115.144 158.31 115.182 158.459 115.236C158.525 115.279 158.582 115.334 158.626 115.4C158.67 115.465 158.701 115.538 158.715 115.615C158.777 115.658 158.912 115.384 159.059 115.42C159.143 115.42 159.168 115.669 159.333 115.745C159.698 115.907 160.312 115.478 160.396 116.39L160.543 116.101C161.354 116.617 162.213 117.035 163.069 117.49C163.164 117.544 163.295 117.489 163.39 117.551C163.621 117.702 163.855 118.373 164.004 117.846L165.193 118.816L165.339 118.528C165.489 119.328 166.684 118.968 166.629 119.79C166.995 119.57 166.87 119.808 167.031 119.923C167.292 120.094 167.582 120.216 167.887 120.284C167.992 120.419 168.115 120.541 168.252 120.644C168.395 120.723 168.793 120.832 168.885 120.889C169.06 120.994 169.071 121.311 169.093 121.326C169.115 121.34 169.426 121.171 169.484 121.228C169.543 121.286 169.451 121.423 169.502 121.495C169.601 121.632 169.948 121.527 169.985 121.564C170.095 121.657 170.054 121.87 170.084 121.902C170.113 121.935 170.201 121.816 170.255 121.841C170.31 121.866 170.255 121.975 170.325 121.985C170.394 121.996 170.69 121.881 170.807 121.931C170.924 121.982 171.538 122.652 171.761 122.739C171.984 122.825 172.069 122.685 172.127 122.706C172.185 122.728 172.613 123.276 172.756 123.337C172.803 123.337 172.931 123.258 173.026 123.316C173.561 123.622 174.053 123.996 174.488 124.43C174.785 123.903 174.708 124.275 174.752 124.296C175.004 124.406 175.277 124.457 175.552 124.448C175.94 124.498 176.09 124.884 176.181 124.909C176.272 124.934 176.499 124.808 176.514 124.819C176.539 124.95 176.575 125.079 176.62 125.205C176.693 125.255 177.387 125.003 177.501 125.115C177.526 125.14 177.457 125.54 177.65 125.594C177.983 125.684 177.968 125.324 177.998 125.302C178.027 125.281 178.159 125.446 178.268 125.475C178.523 125.523 178.781 125.556 179.04 125.576C179.116 125.54 179.04 125.371 179.135 125.4C179.294 125.537 179.445 125.682 179.588 125.836C179.701 126.012 179.42 126.135 179.877 126.081C179.599 125.746 180.037 125.684 180.337 125.72C180.637 125.756 180.962 125.998 181.109 125.987C181.163 125.987 181.163 125.775 181.211 125.785C181.412 125.825 181.408 126.049 181.555 126.077C181.668 125.223 181.894 126.146 182.202 126.272C182.238 126.272 182.443 125.71 182.794 126.171L182.892 125.98C183.101 125.98 183.477 126.218 183.667 126.167C183.719 126.167 183.821 125.912 183.982 125.883C184.037 125.883 184.007 126.074 184.088 126.081C184.168 126.088 184.303 125.958 184.325 125.976C184.347 125.994 184.325 126.304 184.475 126.366C184.782 126.063 185.082 126.027 185.367 126.366C185.415 125.98 185.704 126.431 186.007 126.467C185.948 125.692 186.515 126.059 186.738 126.467C186.807 126.171 186.903 126.366 186.961 126.337C187.02 126.308 186.998 126.207 187.063 126.182C187.381 126.059 187.476 126.182 187.729 126.369C187.824 125.912 188.094 126.416 188.171 126.369L188.321 125.883C188.463 126.077 188.997 126.474 189.216 126.449C189.282 126.449 189.322 126.254 189.439 126.178C189.805 125.955 189.75 126.229 189.772 126.243C189.794 126.258 189.948 126.164 189.951 126.171C190.002 126.24 189.97 127.155 190.346 126.272C189.67 126.816 190.346 125.821 190.631 126.002C190.668 126.027 190.664 126.207 190.81 126.258C190.957 126.308 191.147 126.182 191.286 126.258L191.242 126.012C191.494 125.818 191.402 126.139 191.534 126.304C191.666 126.47 191.585 126.088 191.731 126.16L192.031 126.546L191.933 126.063C192.17 126.012 192.335 126.225 192.554 126.229C192.633 126.233 192.712 126.212 192.778 126.168C192.844 126.125 192.893 126.061 192.92 125.987C192.985 125.966 193.077 126.067 193.139 126.063C193.201 126.059 193.161 125.565 193.592 126.16C193.512 125.872 193.771 125.742 194.042 125.764C194.312 125.785 194.195 126.056 194.385 126.063C194.29 125.537 194.616 125.937 194.681 125.868C194.681 125.868 194.681 125.612 194.777 125.508C194.872 125.403 195.807 125.868 196.019 125.277C196.272 125.205 196.063 125.475 196.264 125.468C196.202 124.866 196.451 125.108 196.688 124.989C196.926 124.87 196.867 124.581 197.251 125.079C197.31 124.336 198.169 124.862 198.242 124.79C198.315 124.718 198.213 124.531 198.242 124.498C198.271 124.466 199.214 124.891 198.936 124.206C199.17 124.48 199.302 124.653 199.43 124.206L199.825 124.401L199.627 124.21C199.728 124.237 199.835 124.232 199.934 124.197C200.032 124.161 200.116 124.097 200.176 124.012C200.311 124.012 200.541 124.138 200.768 124.12C200.995 124.102 200.896 123.759 201.356 124.015L201.309 123.723L201.704 124.109C201.729 123.997 201.671 123.669 201.704 123.626C201.883 123.406 201.865 123.896 202.047 123.817C202.145 123.785 202.226 123.716 202.272 123.626C202.319 123.535 202.327 123.43 202.296 123.334C202.515 123.2 202.574 123.604 202.596 123.622C202.782 123.77 202.789 123.449 202.855 123.435C203.126 123.373 203.473 123.557 203.484 122.944C203.722 122.847 203.765 123.262 203.831 123.236C204.036 123.153 204.051 122.836 203.981 122.656C204.606 123.24 204.624 122.656 204.734 122.656C205.03 122.616 205.03 123.063 205.165 122.277L205.312 122.472C205.641 122.566 205.593 122.166 205.809 122.083C206.025 122 205.948 122.267 205.959 122.274C205.97 122.281 206.112 122.126 206.218 122.108C206.653 122.032 206.726 122.533 206.847 121.6C207.015 121.556 206.887 121.758 207.008 121.787C207.099 121.82 207.2 121.819 207.29 121.785C207.381 121.75 207.456 121.684 207.501 121.6C207.563 121.6 207.666 121.701 207.724 121.679C207.829 121.578 207.942 121.486 208.061 121.401C208.13 121.358 208.119 121.235 208.196 121.214C208.273 121.192 208.682 121.322 208.762 121.304C208.843 121.286 208.847 121.124 208.923 121.073C209 121.023 209.183 121.264 209.121 120.821L209.665 121.113L209.618 120.723C209.932 120.803 210.067 121.052 210.258 120.626C210.334 120.716 210.912 120.987 210.908 121.07C210.908 121.203 210.663 121.405 210.715 121.646C210.766 121.888 211.011 121.928 211 122.18C210.802 122.05 210.667 121.935 210.407 121.985C210.484 122.112 210.557 122.663 210.309 122.519C210.173 122.443 210.459 122.209 210.111 122.277L209.914 122.616C210.002 122.789 210.323 122.584 210.21 122.811C210.139 122.88 210.048 122.926 209.951 122.944C209.717 122.988 209.786 122.584 209.713 122.472C209.428 122.67 209.611 122.89 209.219 122.569C209.219 122.977 209.439 123.135 209.417 123.539C209.351 123.572 209.033 122.818 209.051 123.197C209.07 123.575 208.825 123.197 208.591 123.539L208.492 123.247C208.104 123.557 208.251 124.055 207.998 124.412C207.966 124.127 208.17 123.662 207.852 123.442C207.852 123.828 207.684 124.13 207.852 124.523L207.26 124.134L207.359 124.718L207.161 124.913C207.008 124.949 207.085 124.769 206.997 124.715C206.631 124.491 206.196 124.779 206.569 125.104C206.31 125.201 206.152 124.934 206.127 124.931C205.396 124.823 205.579 125.403 205.48 125.493C205.246 125.713 205.352 125.295 205.29 125.252C205.228 125.208 205.027 125.208 204.924 125.108L204.877 125.493L204.676 125.299C204.497 125.263 204.613 125.464 204.577 125.493C204.54 125.522 204.116 124.938 204.38 125.688L203.689 125.591C203.612 125.749 203.937 125.933 203.886 125.98C203.835 126.027 203.678 125.879 203.608 125.904C203.602 125.946 203.584 125.986 203.557 126.019C203.53 126.052 203.495 126.077 203.455 126.092C203.294 126.153 202.968 126.207 202.866 126.268C202.764 126.33 202.83 126.524 202.797 126.557C202.705 126.643 202.31 126.441 202.172 126.46C202.106 126.46 202.131 126.615 202.033 126.654C201.934 126.694 201.766 126.622 201.718 126.654C201.671 126.687 201.806 126.968 201.612 126.935C201.7 126.611 201.331 126.51 201.079 126.55C201.005 126.55 201.024 126.73 200.976 126.73C200.714 126.692 200.464 126.596 200.245 126.449V126.741L200.146 126.55C200.073 126.485 199.584 126.86 199.503 127.033L199.258 126.647C199.141 126.777 199.258 127.202 199.214 127.235C199.17 127.267 198.991 127.296 198.893 127.361C198.794 127.426 198.915 127.599 198.662 127.516C198.629 127.487 198.805 127.285 198.765 127.227C198.544 127.107 198.311 127.01 198.07 126.935C197.851 127.181 198.289 127.249 198.465 127.227L198.366 127.808C197.814 127.606 198.096 127.134 197.635 127.808L197.584 127.519C197.434 127.483 197.533 127.649 197.412 127.707C197.098 127.869 196.919 127.588 196.897 127.617C196.867 127.739 196.933 128.028 196.897 128.1C196.86 128.172 196.111 128.136 196.008 128.003L195.957 128.295C195.888 127.685 195.497 128.197 195.511 127.812H195.416C195.263 128.129 195.091 128.024 195.416 128.392L194.426 128.295L194.327 128.1L194.225 128.583C193.972 128.349 193.991 129.016 193.786 128.489C193.598 128.649 193.381 128.771 193.146 128.85C192.978 128.85 192.934 128.652 192.744 128.698V128.99C192.682 129.055 192.188 128.774 192.247 128.601L191.658 128.987L191.856 128.504C191.646 128.634 191.396 128.686 191.15 128.651C190.905 128.615 190.68 128.494 190.518 128.309C190.258 128.799 190.357 128.497 190.076 128.446C189.904 128.414 189.743 128.475 189.578 128.406C189.805 129.091 189.399 128.45 189.333 128.424C189.052 128.32 188.434 128.533 188.394 128.504C188.354 128.475 188.31 128.075 188.145 128.017L188.197 128.406C187.656 128.406 186.943 128.893 187.005 128.114C186.394 128.54 186.639 128.241 186.486 128.049C186.365 127.945 186.223 127.867 186.069 127.822C185.846 128.089 186.314 128.039 186.402 128.129C186.402 128.129 186.351 128.489 186.402 128.601C186.212 128.634 186.402 128.334 186.157 128.406C186.051 128.435 186.157 128.644 186.058 128.601C185.861 128.241 185.638 128.637 185.466 128.601C185.294 128.565 185.371 127.974 184.735 128.212C184.629 128.309 185.1 128.807 184.782 128.792C184.753 128.792 184.483 128.522 184.271 128.522C184.059 128.522 183.755 129.005 183.645 128.212L183.397 128.504C183.397 128.208 182.944 128.442 182.856 128.305C182.618 127.945 183.13 128.039 183.152 128.017C183.174 127.995 183.152 127.685 183.002 127.631C182.735 127.519 182.83 128.255 182.593 128.302C182.355 128.349 181.993 128.093 181.964 128.114C181.935 128.136 182.044 128.345 181.865 128.309L181.767 128.017L181.668 128.504C181.704 128.244 181.693 128.086 181.419 128.017C181.332 127.995 181.419 128.223 181.321 128.212C181.222 128.201 181.361 127.912 181.079 128.114L180.926 127.729C180.787 127.768 181.017 127.985 180.973 128.017C180.929 128.049 179.942 127.967 180.184 127.628C179.668 127.92 179.555 127.314 179.146 127.534L179.197 127.339C178.751 127.57 178.806 127.242 178.74 127.235C178.612 127.235 178.447 127.35 178.276 127.321C178.104 127.292 177.804 126.986 177.515 127.047C177.482 126.856 177.764 126.993 177.811 126.95C177.859 126.907 177.585 126.589 177.61 126.467L177.512 126.755C177.237 126.463 177.179 126.719 177.022 126.719C176.499 126.719 176.016 126.341 175.527 126.214L175.435 125.785C175.274 125.756 175.315 126.052 175.187 126.077C175.059 126.103 174.982 125.937 174.876 125.915C174.77 125.893 174.715 125.958 174.675 125.951C174.364 125.904 174.58 125.565 174.152 125.785L174.547 125.591C174.397 125.032 174.368 125.45 174.273 125.486C174.153 125.523 174.031 125.55 173.907 125.569C173.765 125.54 173.834 125.27 173.67 125.302L173.618 125.591C173.556 125.454 173.085 125.23 173.085 125.154C173.085 125.079 173.421 125.014 173.11 124.819C172.949 124.718 172.514 124.819 172.215 124.682C172.167 124.66 172.025 124.433 171.948 124.365C171.871 124.296 171.739 124.343 171.707 124.318C171.674 124.293 171.758 124.177 171.729 124.134C171.549 123.864 171.224 124.094 171.092 124.001C170.961 123.907 171.038 123.611 170.855 123.449C170.672 123.287 170.219 123.226 170.058 122.97L169.959 123.262C169.725 122.786 169.184 122.934 169.016 122.389L168.822 122.678C168.822 122.36 168.457 122.342 168.347 122.277C168.318 122.256 168.442 122.057 168.278 122C168.175 121.964 168.303 122.241 168.131 122.194C168.131 121.87 167.89 121.993 167.854 121.967C167.817 121.942 167.777 121.78 167.675 121.715C167.572 121.65 166.976 121.715 167.141 121.416C167.159 121.383 167.389 121.661 167.338 121.369C167.174 121.037 166.848 121.286 166.607 121.134C166.552 121.098 166.275 120.561 166.242 120.543C166.209 120.525 166.004 120.788 165.946 120.738C165.887 120.687 166.026 120.507 165.847 120.543L165.799 120.738C165.668 120.698 165.364 120.291 165.335 120.276C165.306 120.262 165.108 120.413 165.002 120.255C164.896 120.096 165.076 119.981 165.054 119.966C165.032 119.952 164.9 119.966 164.845 119.966C164.79 119.966 164.743 119.808 164.706 119.801C164.461 119.736 163.975 120.096 163.975 119.393L163.825 119.685C163.621 119.591 163.825 119.353 163.771 119.325C163.716 119.296 162.996 118.964 162.864 118.914C162.75 118.856 162.626 118.823 162.498 118.816C162.462 118.795 162.458 118.596 162.261 118.506C162.173 118.467 162.041 118.506 161.961 118.506C161.46 118.326 161.19 118.239 161.098 117.677C160.919 117.637 161.036 117.839 161 117.868C160.806 118.03 160.799 117.717 160.784 117.706C160.59 117.612 160.152 117.684 160.108 117.19C159.377 117.807 159.567 117.115 159.322 116.938C159.205 116.855 158.883 117.057 158.825 116.996C158.766 116.934 158.901 116.516 158.675 116.415L158.529 116.898C158.291 116.675 158.01 116.502 157.702 116.39C157.618 116.35 157.487 116.39 157.457 116.39C157.428 116.39 157.388 116.184 157.293 116.127C157.267 116.109 156.949 116.487 156.847 116.512C156.781 116.062 156.229 116.639 156.551 115.835L156.156 115.737L156.105 116.029C155.749 115.834 155.47 115.527 155.312 115.157C155.041 115.95 155.089 115.247 154.818 115.157C154.727 115.124 154.818 115.352 154.719 115.352C154.544 115.352 154.504 115.15 154.325 115.15C154.263 115.15 154.284 115.348 154.219 115.359C154.087 115.359 153.941 115.247 153.853 115.247C153.765 115.247 153.974 115.73 153.407 115.056L153.206 115.348C153.206 114.966 152.932 115.078 152.841 115.023C152.841 115.023 152.841 114.731 152.621 114.865C152.599 114.865 152.789 115.153 152.373 115.247C152.073 114.584 151.55 115.009 151.09 114.475C150.994 115.197 150.421 114.504 150.358 115.056C150.165 115.034 150.223 114.605 150.26 114.475L150.062 114.959L149.814 114.573C149.792 114.933 149.532 114.616 149.47 114.67C149.306 114.811 149.986 114.955 149.47 115.153L149.222 114.67L149.123 114.959C148.991 114.771 148.681 114.724 148.677 114.475L148.483 114.767C148.421 114.191 148.055 114.789 147.887 114.67L147.935 114.475C147.774 114.576 147.313 114.353 147.295 114.378C147.2 114.501 147.423 114.739 146.802 114.767L146.75 114.475C146.641 114.699 146.056 114.674 146.019 114.695C145.983 114.717 145.895 115.085 145.705 114.959C145.705 114.959 145.683 114.717 145.504 114.62C145.409 114.569 145.255 114.645 145.138 114.594C144.839 114.472 144.546 113.924 144.714 114.767C144.551 114.615 144.368 114.485 144.17 114.382C143.91 114.299 144.104 114.641 143.969 114.677C143.676 114.753 143.435 114.695 143.526 114.378C143.347 114.49 142.43 114.659 142.342 114.573C142.254 114.486 142.43 114.108 142.192 113.992C141.87 113.834 142.265 114.429 142.192 114.573C142.013 114.933 141.527 114.393 141.64 114.962L141.296 114.281L141.245 114.67C141.081 114.717 141.209 114.364 141 114.475C140.898 114.53 140.905 114.681 140.796 114.746C140.591 114.868 140.43 114.425 140.207 114.385C140.127 114.367 140.145 114.638 140.002 114.67C139.798 114.717 139.48 114.382 139.319 114.385C139.158 114.389 139.374 114.71 139.169 114.677C139.121 114.101 138.438 114.749 138.039 114.677C137.963 114.677 137.995 114.468 137.933 114.483C137.871 114.497 137.707 114.695 137.539 114.681C137.487 114.681 137.498 114.486 137.429 114.483C137.129 114.483 137.133 114.616 136.745 114.288C136.807 114.58 136.789 114.966 136.449 114.58L136.398 114.872C136.248 114.904 136.343 114.742 136.226 114.681C136.109 114.62 135.97 114.62 135.861 114.576L135.762 114.872L135.364 114.483C135.298 114.814 134.95 114.573 134.768 114.594C134.706 114.594 134.72 114.771 134.673 114.778C134.439 114.811 134.344 114.573 134.179 114.576C134.135 114.576 134.161 114.987 133.682 114.483C133.561 114.959 132.669 114.252 132.743 114.969L132.399 114.771L132.3 114.966L131.957 114.483C131.913 114.894 131.116 114.735 131.258 115.16C131.109 115.197 131.204 115.034 131.09 114.973C130.977 114.912 130.67 114.789 130.615 114.775C130.56 114.76 130.582 114.959 130.505 114.973C130.366 115.002 130.187 114.876 130.07 114.919C129.836 115.009 130.07 115.37 129.829 115.258C129.739 115.205 129.66 115.135 129.597 115.052C129.535 114.969 129.489 114.875 129.464 114.775L129.171 114.969L129.12 114.775L128.725 115.16C128.557 114.85 128.272 114.923 128.36 115.355L128.261 114.969C128.078 114.876 127.83 115.215 127.716 115.258C127.687 115.258 127.544 114.76 127.321 115.258L127.124 115.067C126.758 115.91 126.832 115.215 126.682 115.103C126.605 115.049 126.316 115.175 126.185 115.067L126.382 115.261C126.064 115.741 126.104 115.261 126.082 115.261C125.998 115.2 125.845 115.716 125.64 115.164C125.424 115.69 125.446 115.106 125.245 115.164C125.19 115.164 125.278 115.557 124.755 115.561C124.649 115.561 124.755 115.308 124.602 115.359C124.521 115.878 124.101 115.546 123.871 115.456C123.841 115.456 123.673 115.889 123.476 115.456C123.275 115.723 123.256 115.604 123.03 115.456C123.001 115.489 123.289 115.925 122.88 115.748C122.748 115.69 122.796 115.434 122.635 115.456C122.478 116.224 122.525 115.608 122.142 115.553V115.943C122.025 115.951 121.909 115.916 121.817 115.844C121.726 115.772 121.665 115.668 121.648 115.553C121.308 115.708 121.816 116.13 121.125 115.914C120.869 115.838 120.921 115.629 120.807 115.449C120.646 115.51 120.606 115.788 120.559 115.838C120.449 115.957 120.526 115.561 120.314 115.644C120.102 115.727 120.255 115.885 120.233 115.914C119.915 116.3 119.382 116.047 118.98 116.13L119.374 116.664C118.936 116.916 119.17 116.768 119.042 116.556C118.991 116.473 118.768 116.455 118.877 116.13C118.705 116.091 118.815 116.278 118.771 116.314C118.727 116.35 118.486 116.177 118.259 116.242C118.002 116.376 117.757 116.533 117.528 116.711L117.283 116.422L117.134 116.905L117.035 116.613L116.79 116.808C116.874 116.592 116.399 116.026 116.293 116.13C116.125 116.3 116.457 116.332 116.461 116.343C116.764 116.873 115.894 116.664 116.194 117.003C115.898 117.158 115.829 116.714 115.748 116.714C115.668 116.714 115.657 117.035 115.503 117.003L115.306 116.711L115.353 117.1C114.871 116.988 115.445 116.682 115.01 116.711L114.86 117.392C114.82 117.089 114.681 117.079 114.461 116.905C114.388 117.23 114.184 116.866 114.216 117.197C114.056 117.241 114.147 117.06 114.099 117.032C113.978 117.014 113.856 117.004 113.734 117.003C113.708 117.003 113.924 117.273 113.485 117.392C113.434 117.392 113.445 117.197 113.379 117.187C113.248 117.187 113.014 117.334 112.955 117.288C112.897 117.241 112.835 116.823 112.546 116.905C112.513 116.938 113.123 117.608 112.597 117.655C112.232 117.688 112.444 117.457 112.414 117.363C112.327 117.071 112.231 117.024 111.954 117.003C111.84 117.273 112.235 117.136 112.151 117.342C112.03 117.619 111.292 118.063 111.358 117.389C111.102 117.479 110.937 117.587 110.963 117.875L110.766 117.392C110.572 117.36 110.711 117.634 110.667 117.684C110.499 117.872 110.462 117.529 110.448 117.518C110.199 117.324 110.082 117.655 110.082 117.879C109.91 117.922 110.02 117.713 109.983 117.688C109.947 117.663 109.252 118.048 109 117.54C109.238 117.179 109.19 117.63 109.245 117.587C109.268 117.571 109.287 117.552 109.302 117.528C109.317 117.505 109.327 117.48 109.331 117.453C109.336 117.426 109.335 117.398 109.328 117.372C109.321 117.345 109.309 117.32 109.292 117.298C109.406 117.241 109.658 117.425 109.79 117.392C109.563 117.27 109.903 116.905 109.932 116.909C110.06 116.934 110.338 117.208 110.524 117.208C110.572 117.208 110.689 116.711 111.171 117.006L111.073 116.815C111.369 116.455 111.859 117.432 111.57 116.329C111.789 116.329 111.99 116.448 112.213 116.433C112.436 116.419 112.579 116.228 112.703 116.228C112.787 116.228 112.736 116.383 112.802 116.404C113.441 116.599 113.145 116.26 113.167 116.188C113.233 115.864 114.059 116.357 114.096 115.936C114.238 116.595 114.348 116.047 114.41 116.033C114.593 115.99 114.948 116.134 115.017 115.878C115.043 115.795 114.816 115.593 115.189 115.55C115.214 115.55 115.229 115.68 115.273 115.701C115.456 115.802 115.638 115.838 115.777 116.033C116.143 115.82 115.598 115.528 115.73 115.359C115.924 115.106 116.578 115.763 116.717 115.647L116.519 115.359C116.75 115.449 116.837 115.193 116.885 115.182C117.031 115.142 117.411 115.315 117.616 115.182V115.359H117.715C117.638 115.099 117.898 115.085 117.916 114.876C118.497 115.564 118.387 114.912 118.42 114.876C118.702 114.667 119.089 115.16 119.246 114.667C119.524 114.713 119.638 114.923 119.495 115.153L119.692 114.767C119.853 114.742 119.758 114.926 119.912 114.995C120.062 115.049 120.223 115.07 120.383 115.056L120.186 114.912C120.584 114.472 120.409 114.786 120.551 114.858C121.44 115.297 120.807 114.858 121.122 114.475C121.487 114.569 121.527 115.07 121.959 114.861L121.765 114.378C121.97 114.515 122.036 114.814 122.357 114.764L122.058 114.281C122.306 114.194 122.332 114.58 122.423 114.573C122.854 114.54 122.489 114.191 122.573 114.086C122.69 114.194 122.938 114.313 123.037 114.407C123.136 114.501 123.092 114.767 123.264 114.767L123.414 114.378L123.808 114.573L123.955 114.378L124.053 114.67V113.985L125.04 114.472L124.942 113.985C125.227 114.173 125.106 113.917 125.143 113.891C125.3 113.772 125.603 114.421 125.874 114.375C125.903 114.364 125.929 114.348 125.95 114.327C125.972 114.306 125.988 114.28 125.998 114.252C126.008 114.223 126.012 114.193 126.009 114.163C126.006 114.133 125.996 114.104 125.98 114.079C125.903 113.945 125.541 113.92 125.68 113.79C126.046 113.938 126.338 113.668 126.47 114.086L126.568 113.794C126.733 114.082 126.784 114.389 127.113 114.569L127.31 114.375C127.069 113.452 127.285 113.92 127.65 113.895C127.716 113.895 127.705 113.726 127.724 113.715C127.833 113.661 128.089 114.021 128.005 113.502L128.301 113.744L128.104 113.888C128.4 114.032 128.502 113.589 128.546 113.599C128.758 113.646 129.007 114.093 129.189 113.938C129.109 113.881 128.912 113.675 128.992 113.599C129.072 113.524 129.577 113.866 129.537 114.086C129.61 113.754 129.811 113.845 129.734 113.502C130.001 113.762 130.352 113.834 130.527 114.18C130.663 114.18 130.626 113.603 130.823 113.599C130.823 113.599 131.028 113.711 130.907 113.794C130.864 113.823 130.739 113.726 130.772 113.888C131.273 114.043 131.624 114.328 131.072 113.646C131.046 113.571 131.383 113.646 131.167 113.405C131.31 113.394 131.452 113.439 131.563 113.529C131.674 113.619 131.745 113.747 131.763 113.888C131.935 113.931 131.821 113.74 131.869 113.7C131.916 113.661 132.121 113.827 132.158 113.79C132.34 113.621 131.865 113.628 131.957 113.358C132.033 113.297 132.118 113.247 132.209 113.21C132.275 113.21 132.286 113.419 132.348 113.455C132.41 113.491 133.079 113.376 133.243 113.603C133.243 113.625 133.046 113.964 133.196 113.985C133.814 114.082 133.364 113.729 133.444 113.697C133.613 113.697 133.605 113.942 133.642 113.985C133.678 114.028 134.091 113.661 133.887 113.625C133.719 113.805 133.675 113.48 133.543 113.322C133.931 113.322 134.15 113.556 134.559 113.412C134.647 113.379 134.636 113.228 134.676 113.228C134.907 113.228 135.188 113.444 135.126 113.708C135.261 113.744 135.221 113.574 135.331 113.477C135.468 113.354 135.615 113.24 135.769 113.138C135.934 113.138 136.38 113.819 136.559 113.808C136.672 113.808 136.559 113.556 136.61 113.516C136.661 113.477 137.283 113.845 137.498 113.708C136.61 112.777 137.703 113.538 137.941 113.516L137.996 113.224C138.233 113.43 138.175 113.113 138.24 113.127C138.306 113.142 138.701 113.488 138.785 113.419C138.785 113.419 138.697 113.033 139.03 113.059C139.07 113.069 139.567 113.43 139.695 113.3Z" fill="white"></path><path d="M217.852 114.872C217.836 115.897 217.57 116.903 217.079 117.802C216.587 118.702 215.884 119.468 215.03 120.034C213.608 120.976 212.121 121.816 210.581 122.548C214.001 125.062 216.767 127.597 216.767 131.56C216.767 137.698 210.526 141.989 203.636 141.989C197.508 141.989 192.949 138.675 192.949 133.353C192.949 130.421 194.469 128.414 197.181 126.784C198.592 125.916 199.948 125.154 201.577 124.27C199.136 122.422 197.127 120.197 197.127 116.665C197.127 110.908 201.903 106.836 208.467 106.836C213.402 106.831 217.852 109.71 217.852 114.872ZM209.99 133.877C209.99 130.345 207.55 128.665 203.318 125.569C200.388 127.63 199.358 130.236 199.358 133.387C199.358 136.701 201.418 139.634 204.8 139.634C207.868 139.634 209.99 137.242 209.99 133.877ZM203.155 114.164C203.155 118.018 206.085 119.485 208.852 121.333C210.694 119.975 212.104 117.587 212.104 114.436C212.104 111.394 210.639 109.06 207.604 109.06C204.884 109.06 203.151 111.449 203.151 114.164H203.155Z" fill="white"></path><path d="M224.306 141.968C222.084 141.968 220.51 140.229 220.51 137.895C220.51 135.18 222.406 133.115 225.01 133.115C227.291 133.115 228.865 134.791 228.865 137.305C228.885 137.914 228.782 138.521 228.562 139.09C228.341 139.658 228.008 140.176 227.582 140.612C227.156 141.047 226.646 141.392 226.083 141.625C225.52 141.859 224.916 141.975 224.306 141.968Z" fill="white"></path><path d="M240.548 110.037C241.6 108.987 242.854 108.162 244.234 107.611C245.614 107.06 247.091 106.795 248.577 106.831C253.947 106.831 257.962 110.418 257.962 116.049C257.962 122.02 254.11 125.116 245.27 131.971L240.494 135.662H249.393C252.591 135.662 253.298 135.243 255.739 131.753L257.53 132.407C256.392 135.122 254.872 138.649 254.002 141.31H231.975L232.247 139.793C244.345 129.528 250.804 124.098 250.804 117.419C250.804 113.942 249.012 111.717 245.596 111.717C242.285 111.717 240.154 113.812 238.216 116.225L236.806 114.813L240.548 110.037Z" fill="white"></path><path d="M285.719 131.866H281.051L280.402 135.83C279.984 138.49 280.294 139.182 284.145 139.416L283.605 141.314H267.979L268.397 139.416C272.679 139.035 273.115 138.578 273.877 134.853L274.417 131.866H260.641L261.021 129.771C267.639 122.384 275.128 114.13 282.018 107.179H285.815L281.629 128.791H286.351L285.719 131.866ZM277.962 114.491C273.676 119.158 268.899 124.32 265.103 128.77H275.032L278.071 114.491H277.962Z" fill="white"></path><path d="M139.119 257.522H140.625L134.478 241.548H132.972L126.825 257.522H128.331L130.119 252.876H136.529L135.853 251.375H130.695L133.725 243.504L139.119 257.522Z" fill="white"></path><path d="M84.8842 256.02V243.055H86.8395L86.1635 241.553H81.4273L82.1758 243.055H83.3826V256.02H81.4273L82.1758 257.522H86.8395L86.1635 256.02H84.8842Z" fill="white"></path><path d="M78.6373 241.548H77.5304L71.0067 255.866L64.4786 241.548H62.9724L62.8817 248.217C62.8726 250.173 62.5667 252.115 61.9744 253.979C61.5526 255.312 60.8202 256.527 59.8376 257.522H61.8791C61.8791 257.522 62.664 256.823 63.476 254.591C64.1632 252.462 64.4883 250.232 64.4378 247.995V244.819L70.2265 257.522H71.7326L77.5077 244.842V257.508H79.0093V242.084L78.6373 241.548Z" fill="white"></path><path d="M101.552 241.548H100.449V255.358L90.8816 241.553H90.4824L90.4778 241.548H89.3754V241.553H89.3709L89.3754 241.558V257.522H90.8771V243.722L100.449 257.522H101.951V242.084L101.552 241.548Z" fill="white"></path><path d="M112.943 256.02H107.055V250.141H113.12L112.444 248.639H107.055V243.05H113.624L112.943 241.548H105.553H105.557H105.553V257.522H107.055H113.624L112.943 256.02Z" fill="white"></path><path d="M147.067 245.845C146.566 245.835 146.069 245.936 145.612 246.14C145.154 246.344 144.746 246.646 144.418 247.024V246.384L144.019 245.845H142.916V257.508H144.418V250.771C144.418 250.318 144.722 247.546 147.058 247.41C147.993 247.355 148.546 247.364 148.546 247.364V245.858C148.546 245.858 148.251 245.845 147.067 245.845Z" fill="white"></path><path d="M154.076 256.011C153.868 256.011 153.804 256.011 153.804 255.471C153.804 254.931 153.804 250.649 153.804 247.346H156.626L155.95 245.845H153.804V243.794L153.35 243.213H152.293V245.849H150.025L150.774 247.351H152.293V256.791C152.293 256.791 152.293 257.526 152.96 257.526H156.59L156.172 256.016L154.076 256.011Z" fill="white"></path><path d="M177.621 248.371H172.232V242.778H178.796L178.12 241.276H170.73V241.281V257.254H172.232V249.869H178.297L177.621 248.371Z" fill="white"></path><path d="M183.623 247.981C183.909 247.691 184.25 247.46 184.626 247.304C185.003 247.149 185.407 247.07 185.814 247.074C186.215 247.054 186.615 247.126 186.985 247.283C187.354 247.44 187.683 247.679 187.947 247.981C188.494 248.696 188.769 249.582 188.722 250.481H182.775L183.451 252.001H190.496V251.093C190.496 249.374 190.083 248.036 189.267 247.074C188.843 246.589 188.315 246.206 187.721 245.955C187.128 245.704 186.485 245.592 185.842 245.627C185.133 245.615 184.431 245.761 183.787 246.056C183.142 246.35 182.572 246.785 182.117 247.328C181.1 248.525 180.568 250.059 180.624 251.629C180.624 253.511 181.078 254.977 181.985 256.011C182.457 256.533 183.039 256.944 183.688 257.213C184.338 257.483 185.039 257.606 185.742 257.572C187.148 257.641 188.539 257.249 189.702 256.456V255.603L189.317 255.086C188.384 255.735 187.277 256.088 186.141 256.097C185.639 256.124 185.136 256.044 184.667 255.863C184.198 255.681 183.773 255.403 183.419 255.045C182.709 254.202 182.338 253.125 182.38 252.023C182.357 251.252 182.435 249.12 183.623 247.981Z" fill="white"></path><path d="M192.973 255.195C193.857 255.7 194.85 255.988 195.867 256.034C197.485 256.034 198.296 255.488 198.299 254.396C198.306 254.173 198.261 253.951 198.169 253.747C198.077 253.544 197.94 253.364 197.768 253.221C197.129 252.77 196.426 252.418 195.681 252.178C194.443 251.692 193.622 251.198 193.218 250.703C192.976 250.387 192.8 250.025 192.701 249.639C192.603 249.253 192.583 248.851 192.643 248.457C192.703 248.063 192.842 247.685 193.052 247.346C193.261 247.007 193.537 246.714 193.862 246.484C194.764 245.86 195.842 245.542 196.938 245.577C197.855 245.593 198.759 245.8 199.592 246.185V247.151L199.206 247.668C198.432 247.249 197.56 247.041 196.679 247.065C196.096 247.038 195.52 247.197 195.033 247.519C194.835 247.648 194.673 247.825 194.563 248.034C194.453 248.242 194.397 248.476 194.402 248.712C194.39 248.922 194.425 249.133 194.503 249.329C194.581 249.525 194.702 249.702 194.856 249.846C195.462 250.277 196.127 250.621 196.829 250.867C198.133 251.366 199.005 251.866 199.447 252.368C199.893 252.884 200.129 253.547 200.109 254.228C200.123 254.703 200.016 255.174 199.796 255.596C199.577 256.017 199.254 256.376 198.857 256.637C197.905 257.26 196.782 257.57 195.645 257.522C194.595 257.551 193.555 257.312 192.624 256.828V255.694L192.973 255.195Z" fill="white"></path><path d="M205.576 255.743C205.362 255.743 205.299 255.743 205.299 255.204V247.074H208.116L207.44 245.572H205.299V243.522L204.868 242.941H203.802V245.577H201.534L202.287 247.079H203.797V256.519C203.797 256.519 203.797 257.25 204.46 257.25H208.089L207.676 255.743H205.576Z" fill="white"></path><path d="M238.157 241.281H239.26L239.655 241.816V257.254H238.157V241.281Z" fill="white"></path><path d="M210.747 245.582H211.85L212.249 246.117V257.254H210.747V245.582Z" fill="white"></path><path d="M212.63 241.73C212.63 241.954 212.564 242.174 212.439 242.36C212.314 242.547 212.137 242.692 211.93 242.778C211.723 242.864 211.495 242.886 211.275 242.842C211.055 242.799 210.853 242.691 210.694 242.532C210.535 242.373 210.427 242.171 210.384 241.951C210.34 241.731 210.362 241.503 210.448 241.296C210.534 241.089 210.679 240.912 210.866 240.787C211.052 240.662 211.272 240.596 211.496 240.596C211.797 240.596 212.085 240.715 212.298 240.928C212.511 241.141 212.63 241.429 212.63 241.73Z" fill="white"></path><path d="M215.52 245.582H214.554L214.136 245.89L218.591 257.254H220.02L224.375 245.89L223.953 245.582H222.987L219.267 255.285L215.52 245.582Z" fill="white"></path><path d="M226.753 246.661C227.901 245.931 229.239 245.554 230.6 245.577C233.246 245.577 234.569 246.983 234.569 249.796V257.25H232.845V255.458H232.782C232.483 255.973 232.076 256.418 231.589 256.762C231.103 257.106 230.548 257.341 229.963 257.451C229.377 257.561 228.775 257.544 228.197 257.4C227.618 257.257 227.078 256.99 226.612 256.619C226.287 256.314 226.032 255.942 225.864 255.53C225.696 255.117 225.618 254.673 225.637 254.228C225.637 252.111 226.889 250.877 229.393 250.526L232.836 250.032C232.836 248.054 232.047 247.333 230.463 247.333C229.263 247.266 228.073 247.584 227.066 248.24L226.753 247.818V246.661ZM230.042 251.838C229.31 251.878 228.604 252.123 228.005 252.545C227.802 252.75 227.645 252.996 227.547 253.267C227.448 253.538 227.409 253.827 227.433 254.115C227.424 254.378 227.475 254.64 227.581 254.881C227.687 255.122 227.846 255.336 228.045 255.508C228.493 255.881 229.064 256.073 229.647 256.047C230.073 256.056 230.496 255.973 230.887 255.804C231.279 255.635 231.629 255.384 231.915 255.068C232.524 254.401 232.849 253.524 232.822 252.622V251.465L230.042 251.838Z" fill="white"></path><path d="M4.02847 257.508V256.755C4.02067 256.175 4.0924 255.596 4.24168 255.036C4.38895 254.528 4.62548 254.05 4.94028 253.625C5.31312 253.132 5.74252 252.684 6.21963 252.291C6.74587 251.847 7.39159 251.345 8.15676 250.785C8.63637 250.439 9.09115 250.06 9.51774 249.651C9.86138 249.326 10.1659 248.962 10.4251 248.567C10.6412 248.229 10.8034 247.861 10.9059 247.473C11.0023 247.115 11.0511 246.746 11.0511 246.375C11.0811 245.993 11.0325 245.607 10.9085 245.244C10.7845 244.88 10.5875 244.546 10.3298 244.261C10.089 244.03 9.80447 243.849 9.49287 243.729C9.18127 243.609 8.84886 243.553 8.51511 243.563C7.79223 243.532 7.08095 243.752 6.50089 244.184C5.91952 244.674 5.46503 245.296 5.17619 245.999L3.71088 245.323C4.14894 244.35 4.83397 243.509 5.69791 242.882C6.55344 242.317 7.56249 242.028 8.58771 242.057C9.69 242.031 10.7612 242.423 11.5864 243.154C12.4181 243.886 12.8324 244.963 12.8294 246.384C12.8188 247.369 12.5329 248.331 12.0038 249.161C11.7103 249.62 11.373 250.05 10.9967 250.445C10.5431 250.91 10.0497 251.335 9.52228 251.715L7.78473 252.999C7.38703 253.285 7.0206 253.612 6.69145 253.974C6.44654 254.236 6.25674 254.545 6.1334 254.882C6.03235 255.225 5.98494 255.581 5.9928 255.939H13.4147V257.508H4.02847Z" fill="white"></path><path d="M20.1289 257.789C19.4154 257.809 18.7097 257.637 18.0856 257.291C17.4615 256.944 16.9419 256.437 16.5812 255.821C15.7435 254.508 15.3246 252.643 15.3246 250.227C15.3246 247.572 15.7631 245.547 16.6402 244.152C17.0266 243.493 17.5845 242.95 18.2547 242.581C18.9248 242.213 19.6822 242.033 20.4464 242.061C21.1654 242.026 21.8802 242.189 22.5129 242.532C23.1457 242.875 23.6721 243.386 24.0349 244.007C24.8333 245.305 25.231 247.254 25.228 249.855C25.225 252.456 24.7713 254.422 23.867 255.753C23.478 256.391 22.9276 256.915 22.2713 257.273C21.615 257.63 20.876 257.809 20.1289 257.789ZM20.3602 243.536C19.2805 243.536 18.4685 244.084 17.9241 245.182C17.3797 246.28 17.1075 247.933 17.1075 250.141C17.1075 252.191 17.3721 253.731 17.9014 254.759C18.1023 255.225 18.4374 255.621 18.864 255.895C19.2907 256.17 19.7894 256.311 20.2967 256.301C20.8033 256.307 21.3 256.161 21.7223 255.881C22.1446 255.601 22.4729 255.201 22.6648 254.732C23.188 253.688 23.4496 252.119 23.4496 250.023C23.4496 247.86 23.1911 246.238 22.6739 245.155C22.1567 244.072 21.3855 243.532 20.3602 243.536Z" fill="white"></path><path d="M27.4464 257.508V256.755C27.4363 256.175 27.508 255.596 27.6596 255.036C27.8069 254.528 28.0435 254.05 28.3583 253.625C28.7297 253.131 29.1592 252.683 29.6376 252.291C30.1638 251.847 30.808 251.345 31.5702 250.785C32.0506 250.44 32.5054 250.061 32.9311 249.651C33.276 249.327 33.5806 248.963 33.8384 248.567C34.0546 248.229 34.2168 247.861 34.3193 247.473C34.4134 247.115 34.4622 246.746 34.4645 246.375C34.4945 245.993 34.4459 245.607 34.3219 245.244C34.1979 244.88 34.001 244.546 33.7432 244.261C33.5024 244.03 33.2179 243.849 32.9063 243.729C32.5947 243.609 32.2623 243.553 31.9286 243.563C31.2057 243.532 30.4943 243.752 29.9143 244.184C29.3328 244.674 28.8771 245.297 28.5851 245.999L27.1243 245.323C27.5623 244.35 28.2474 243.509 29.1113 242.882C29.966 242.315 30.9756 242.026 32.0011 242.057C33.102 242.031 34.1717 242.423 34.9952 243.154C35.83 243.885 36.2428 244.969 36.2428 246.384C36.2322 247.369 35.9462 248.331 35.4172 249.161C35.1207 249.618 34.7836 250.048 34.4101 250.445C33.9564 250.91 33.4631 251.335 32.9357 251.715L31.1936 252.999C30.7973 253.285 30.4323 253.612 30.1048 253.974C29.8599 254.236 29.6702 254.545 29.5468 254.882C29.4441 255.224 29.3951 255.581 29.4016 255.939H36.828V257.508H27.4464Z" fill="white"></path><path d="M44.259 247.591H44.1456C43.8407 247.593 43.5367 247.625 43.2382 247.686C42.4044 247.819 41.6143 248.149 40.9337 248.648L40.9654 248.44C41.106 247.578 41.4191 245.377 41.5506 244.198L41.5778 243.926H47.4754L47.6796 242.501H40.3711C40.1624 244.407 39.6679 248.508 39.2687 250.667L40.6841 250.935C41.1378 249.891 41.841 248.979 43.6556 248.979C45.5474 248.979 46.5908 250.34 46.5908 252.772C46.5908 255.294 45.4476 256.801 43.5331 256.801C42.856 256.818 42.1935 256.602 41.6567 256.189C41.1198 255.776 40.7412 255.191 40.5843 254.532L39.1735 255.113C39.7904 257.036 41.3419 258.134 43.4696 258.134C47.8066 258.134 48.1469 253.897 48.1469 252.6C48.1378 249.542 46.6543 247.65 44.259 247.591Z" fill="white"></path><path d="M110.675 4.26197C113.642 3.84007 116.949 1.36763 119.798 0.419482C123.622 -0.850764 127.369 1.05914 130.994 2.23412C134.106 3.26393 136.511 5.40973 139.251 7.01569C142.975 9.20686 146.015 12.2328 149.658 14.5011C152.434 16.2295 156.735 16.91 158.803 19.6637C161.185 22.8393 152.797 24.9897 150.393 25.3481C147.584 25.7654 144.649 25.593 141.827 25.3844C139.591 25.221 136.733 25.7246 134.641 24.7311C131.348 23.1614 128.599 19.8452 125.8 17.713C124.112 16.4337 121.78 15.9392 120.061 14.6326C118.809 13.6799 117.688 12.3371 116.504 11.2665C114.767 9.69228 112.929 8.6534 111.06 7.28788C109.191 5.92237 106.982 4.79275 110.675 4.26197Z" fill="white"></path><path d="M125.55 21.5782C124.557 19.2645 119.861 17.4181 117.838 16.1342C115.452 14.5963 113.687 12.7363 111.487 10.9353C107.086 7.30603 101.633 4.62037 96.4842 2.24319C94.6333 1.39485 92.7098 0.428555 90.6592 0.836849C88.4227 1.25875 85.982 2.65149 83.8997 3.62685C78.8596 5.94052 73.8829 8.35852 68.8518 10.7085C78.9185 18.6475 88.5225 26.9177 98.934 34.5483C101.533 36.4536 104.11 38.7219 106.891 40.3506C109.495 41.8749 112.748 41.5029 115.733 41.7116C119.589 41.9611 124.18 41.4258 127.764 39.8969C129.756 39.0622 130.94 37.2521 132.754 36.1315C133.875 35.4329 138.702 34.639 139.106 33.6228C139.741 32.0532 133.575 28.383 132.146 27.326C129.656 25.4796 128.05 23.2839 125.55 21.5782Z" fill="white"></path><path d="M80.1616 24.1277C78.4785 23.5969 77.8252 22.3811 76.6775 21.2198C75.3165 19.818 73.5473 18.8789 72.0593 17.6359C68.7748 14.8821 65.7988 11.7383 62.5324 8.94828C59.6517 6.48491 57.3516 3.07339 54.2668 0.886751C52.0438 -0.687446 50.1158 0.346896 47.7522 1.07729C44.876 1.98461 41.8546 3.273 38.9013 3.79924C36.5514 4.22115 34.6505 4.01246 32.1554 5.44149C30.728 6.28979 29.1731 6.90252 27.5508 7.25613C23.0822 8.16345 20.7867 10.6495 17.6973 13.4168C15.302 15.5626 12.9384 17.7765 10.5113 19.8815C9.20474 21.0111 5.34864 23.0117 4.04663 24.8717C3.97235 24.9816 3.93045 25.1101 3.92569 25.2427C3.92093 25.3752 3.95351 25.5065 4.01972 25.6214C4.08593 25.7363 4.1831 25.8303 4.30016 25.8927C4.41721 25.955 4.54945 25.9833 4.68177 25.9741C9.67202 25.711 13.4782 20.7933 17.0848 17.6994C18.346 16.6151 19.6571 15.5853 20.9228 14.5238C21.6759 13.8796 22.4335 13.2354 23.1911 12.5821C24.425 11.5024 24.0213 11.6022 25.2099 11.9197C27.9318 12.6365 30.7581 15.8711 32.5954 17.8173C34.3511 19.6728 35.8119 21.805 37.4269 23.7829C39.2416 26.0512 41.4509 27.6889 43.4379 29.6805C45.4249 31.6721 47.2032 36.5126 50.5422 36.8438C52.0075 36.9844 54.5888 35.2968 56.0496 34.7887C57.8869 34.1491 59.5836 33.3597 61.4935 32.906C68.0897 31.3318 73.6516 27.1491 80.1435 25.6248C80.3104 25.5887 80.4608 25.4985 80.5713 25.3682C80.6818 25.2379 80.7461 25.0747 80.7544 24.9041C80.7627 24.7335 80.7144 24.5649 80.6171 24.4245C80.5197 24.2841 80.3788 24.1798 80.2161 24.1277H80.1616Z" fill="white"></path><path d="M80.8557 172.751L81.1506 174.135L88.019 175.137C88.019 175.137 99.9048 166.872 107.186 150.975L100.318 149.991C100.318 149.991 94.47 158.756 89.8835 162.14L90.2192 163.71C90.2192 163.71 85.0838 170.406 80.8557 172.751Z" fill="white"></path><path d="M140.68 155.104L137.518 162.462H140.063L142.063 157.803L144.454 162.462H158.123L154.725 155.104H143.225H140.68Z" fill="white"></path><path d="M141.274 172.456H138.729L135.553 179.81H138.098L140.099 175.155L142.49 179.81H145.815V215.626C145.815 215.626 145.815 218.856 142.095 218.856H132.36L134.356 225.788H148.22C148.22 225.788 152.756 225.221 152.756 218.711V179.81H161.548L158.155 172.456H141.274Z" fill="white"></path><path d="M137.318 170.95L133.92 163.592H122.556V152.863L120.719 150.39H115.624V163.592H109.305H106.76L103.557 170.95H106.102L108.134 166.273L110.534 170.95H115.624V225.788H122.556V170.95H137.318Z" fill="white"></path><path d="M104.94 174.811L97.9178 173.25C97.9178 173.25 93.3223 180.028 88.6949 183.349L89.0079 184.923C89.0079 184.923 83.7818 191.533 79.5219 193.824L79.7986 195.185L86.6489 196.287C87.9596 195.424 89.2004 194.459 90.3598 193.402V225.058H97.2918V186.089C100.148 182.546 102.706 178.774 104.94 174.811Z" fill="white"></path><path d="M105.403 178.68C105.594 207.678 99.8413 215.88 99.8413 215.88L106.066 217.695C112.997 206.807 111.346 178.653 111.346 178.653L105.403 178.68Z" fill="white"></path><path d="M140.389 208.926H135.109C134.201 208.926 133.943 208.926 133.943 206.617C133.943 203.591 133.943 187.667 133.943 181.166L132.128 178.689H127.592V212.229C127.592 212.229 127.592 215.345 130.423 215.345H142.181L140.389 208.926Z" fill="white"></path><path d="M129.361 160.339H135.685L131.185 150.39H124.861L129.361 160.339Z" fill="white"></path><path d="M151.858 136.839V140.732H158.758V82.3367L156.93 79.8688H151.858V130.388H129.642V68.7043L127.809 66.2409H122.742V130.388H100.449V82.3367L98.6165 79.8688H93.5446V130.388L95.7176 136.839H151.858Z" fill="white"></path><path d="M201.534 172.22V185.24H208.466V173.25C221.703 182.355 237.581 186.919 237.581 186.919L243.229 182.886L242.857 181.525C238.026 181.375 230.4 177.778 230.4 177.778L229.983 176.231C227.261 175.777 222.638 173.654 218.532 171.544H240.689L237.967 165.647H208.479V160.203C215.971 159.25 223.386 157.768 230.668 155.766L226.449 150.268C226.449 150.268 196.094 155.403 190.469 154.505L189.562 155.839C189.562 155.839 181.196 156.855 176.564 155.48L175.779 156.66L179.862 162.267C179.862 162.267 189.19 162.267 201.52 161.019V165.656H172.1L170.068 165.121L167.536 171.018L169.573 171.553L171.175 167.829L173.085 171.553H189.988C185.905 173.663 181.232 175.804 178.538 176.24L178.116 177.787C178.116 177.787 170.49 181.384 165.663 181.534L165.291 182.895L170.934 186.928C170.934 186.928 188.028 182.006 201.534 172.22Z" fill="white"></path><path d="M238.843 201.758H209.155V200.569L218.841 192.576H220.583L220.102 191.533L217.974 186.919H187.026L184.562 192.576H186.517L188.083 188.983L189.924 192.576H210.793L202.219 199.326V201.758H170.966L168.435 207.656H170.467L172.073 203.931L173.983 207.656H202.219V216.352C202.219 216.352 202.219 218.621 199.619 218.621H188.278L191.798 225.552H205.97C205.97 225.552 209.146 225.158 209.146 220.612V207.642H241.551L238.843 201.758Z" fill="white"></path><path d="M46.863 190.943V193.03L45.1936 193.787V195.874L43.5286 196.627V198.719H49.7664C49.7664 198.719 51.7807 196.586 54.5299 190.453L57.4015 193.325L62.4235 191.719L56.408 185.703C57.5515 182.153 58.3119 178.491 58.6763 174.779H64.0522C64.0984 174.778 64.1443 174.787 64.1872 174.804C64.2301 174.821 64.2692 174.847 64.3021 174.88C64.335 174.912 64.3612 174.951 64.379 174.993C64.3968 175.036 64.406 175.082 64.406 175.128V196.636C64.406 196.636 64.4061 198.719 66.2933 198.719H74.1415L72.9666 194.454H69.4416C68.8383 194.454 68.6614 194.454 68.6614 192.916C68.6614 190.907 68.6614 178.358 68.6614 173.976L66.1163 170.542H58.9848C59.0723 168.587 59.0557 166.629 58.9349 164.676H54.117C54.117 166.776 54.0399 168.727 53.9084 170.542H45.2208L47.4074 174.797H53.4683C53.1697 177.045 52.7334 179.272 52.1618 181.466L50.7645 180.064L45.9103 181.838L50.5104 186.438C50.0009 187.763 49.3451 189.028 48.5552 190.208L46.863 190.943Z" fill="white"></path><path d="M62.4598 154.945L60.2686 150.209H59.1344H54.303L52.2388 154.945H24.0212L21.9571 150.209H16.6991H15.9914L13.8003 154.945H2.71283L5.41664 160.226H15.075L15.7419 162.997H21.7075L21.0497 160.226H55.2103L54.5525 162.997H60.5181L61.185 160.226H75.9833L73.5472 154.945H62.4598Z" fill="white"></path><path d="M10.6156 205.047H70.045L68.0852 200.792H8.43353L10.6156 205.047Z" fill="white"></path><path d="M26.6661 212.564H75.5343L73.5699 208.313H5.3078L7.48993 212.564H20.9454C19.2623 214.061 16.6084 216.248 14.5443 217.187V218.203C14.5443 218.203 10.4795 221.669 7.5761 222.576V223.484L11.6908 225.008C12.7073 224.54 13.695 224.011 14.6486 223.425C20.0472 223.706 41.5415 224.536 60.686 221.315C64.8279 224.804 67.7132 225.621 67.7132 225.621L71.8279 224.096V223.189C68.9063 222.282 64.8506 218.838 64.8506 218.838V217.822C62.7191 216.805 60.7549 215.47 59.0256 213.862L54.8383 215.223C55.5824 216.13 56.3173 216.987 57.0295 217.763C44.6688 219.499 32.1835 220.187 19.7069 219.818C22.3093 217.688 24.6458 215.253 26.6661 212.564Z" fill="white"></path><path d="M4.06928 194.949L6.52808 199.032L41.6459 196.618L39.4003 192.508L26.2442 193.415V191.147H39.2233L37.2635 186.896H26.2442V182.691L25.0057 181.026H21.576V186.896H9.29544C12.9136 184.407 16.1269 181.376 18.8223 177.909H29.6692V183.462C29.6666 183.672 29.7069 183.881 29.7878 184.076C29.8687 184.27 29.9883 184.446 30.1395 184.593C30.2907 184.739 30.4703 184.853 30.6671 184.928C30.8639 185.003 31.074 185.036 31.2843 185.027H42.5078L41.5007 181.375H34.4645C33.9836 181.375 33.8021 181.411 33.8021 180.967V177.909H42.7347L40.7749 173.654H26.3168V170.932H39.4184L37.4586 166.677H26.3168V165.461L25.0782 163.791H21.6395V166.672H8.52873L6.67782 170.927H8.11589L9.30901 168.205L10.7154 170.927H21.6395V173.649H4.89946L3.04401 177.905H4.48213L5.67525 175.183L7.08159 177.905H12.9519C11.2734 179.361 8.9053 181.253 7.02715 182.106V183.122C7.02715 183.122 2.97143 186.579 0.0498657 187.472V188.38L4.16453 189.904C5.71458 189.184 7.20437 188.34 8.6195 187.382L10.5566 191.156H21.6032V193.751L4.06928 194.949Z" fill="white"></path><path d="M10.7517 103.427V132.067H15.6966V126.491H24.0349V128.968H28.9798V94.6445L27.6641 92.8798H24.0349V94.7216H15.6966V94.6445L14.6078 93.1837C16.0471 87.1789 16.6395 81.0022 16.368 74.8332H31.7924L28.8028 68.2053H7.88006L4.99025 74.8332H7.2313L9.07773 70.596L11.1963 74.8241C11.0511 93.4832 5.29871 101.159 5.29871 101.159L3.53397 101.958V104.171L1.76923 104.97V107.179L0 107.978V110.191H6.59163C6.59163 110.191 8.32916 108.409 10.7517 103.427ZM24.0349 99.2355V121.987H15.6966V99.2355H24.0349Z" fill="white"></path><path d="M36.9868 72.1385L36.6693 103.092C36.6693 122.268 31.6337 129.277 31.6337 129.277L29.8644 130.075V132.298L28.0996 133.097V135.311L26.3349 136.109V138.318H32.9266C32.9266 138.318 35.9116 135.673 38.9738 127.235C43.1566 115.694 42.6031 102.252 42.6031 102.252L42.6984 72.016H81.6178L79.0365 66.4269H62.8318L60.0464 60.2662H53.3458L56.1313 66.4269H37.8306L37.0503 68.2416H37.005V68.3323L35.34 72.1566L36.9868 72.1385Z" fill="white"></path><path d="M55.1559 74.1255H51.5266V78.5668H44.1955L46.5047 83.0717H51.5266V88.384L53.2052 92.8889H72.7125L71.2654 88.384V83.0717H80.0437L77.9659 78.5668H71.2654V75.8902L69.9543 74.1255H66.325V78.5668H56.4942V75.8902L55.1559 74.1255ZM66.2978 83.0717V88.384H56.467V83.0717H66.2978Z" fill="white"></path><path d="M79.0546 95.824H43.0704L45.3795 100.329H81.1324L79.0546 95.824Z" fill="white"></path><path d="M77.2536 126.591H78.1202V102.175H74.4909L73.1798 103.94H50.3608L49.0497 102.175H45.4204V126.591H77.2627H77.2536ZM73.1707 113.018H64.3516V108.894H73.1707V113.018ZM59.8467 108.894V113.018H50.3562V108.894H59.8467ZM50.3517 117.513H59.8467V121.637H50.3562L50.3517 117.513ZM64.3516 121.637V117.513H73.1707V121.637H64.3516Z" fill="white"></path><path d="M47.2713 132.974C47.2713 132.974 42.9796 136.635 39.8857 137.583V138.527L45.3705 140.564C50.698 138.208 55.3823 134.608 59.0301 130.066L52.7969 128.438C51.1303 129.85 49.2694 131.016 47.2713 131.899V132.974Z" fill="white"></path><path d="M83.3372 137.742C80.2433 136.794 75.9471 133.133 75.9471 133.133V132.058C73.9497 131.173 72.089 130.008 70.4215 128.596L64.1928 130.23C67.8377 134.771 72.521 138.37 77.8479 140.723L83.3372 138.69V137.742Z" fill="white"></path></svg>