<?xml version="1.0" encoding="UTF-8"?>
<svg id="_圖層_1" data-name="圖層_1" xmlns="http://www.w3.org/2000/svg" version="1.1" viewBox="0 0 410.22 42.72">
  <!-- Generator: Adobe Illustrator 30.0.0, SVG Export Plug-In . SVG Version: 2.1.1 Build 123)  -->
  <g>
    <path d="M107.34,5.06c2.98-.42,6.31-2.91,9.17-3.86,3.84-1.28,7.61.64,11.26,1.82,3.13,1.04,5.55,3.19,8.3,4.81,3.74,2.2,6.8,5.25,10.46,7.53,2.79,1.74,7.12,2.42,9.2,5.19,2.4,3.19-6.04,5.36-8.46,5.72-2.82.42-5.78.25-8.61.04-2.25-.16-5.12.34-7.23-.66-3.31-1.58-6.08-4.91-8.89-7.06-1.7-1.29-4.04-1.78-5.77-3.1-1.26-.96-2.39-2.31-3.58-3.38-1.75-1.58-3.59-2.63-5.47-4-1.88-1.37-4.1-2.51-.39-3.04Z"/>
    <path d="M122.29,22.47c-1-2.33-5.72-4.18-7.75-5.47-2.4-1.55-4.17-3.42-6.39-5.23-4.43-3.65-9.91-6.35-15.09-8.74-1.86-.85-3.8-1.82-5.86-1.41-2.25.42-4.7,1.82-6.8,2.81-5.07,2.33-10.07,4.76-15.13,7.12,10.12,7.98,19.78,16.3,30.25,23.97,2.61,1.92,5.2,4.2,8,5.83,2.62,1.53,5.89,1.16,8.89,1.37,3.88.25,8.49-.29,12.1-1.82,2-.84,3.19-2.66,5.02-3.79,1.13-.7,5.98-1.5,6.39-2.52.64-1.58-5.56-5.27-7-6.33-2.5-1.86-4.12-4.06-6.63-5.78Z"/>
    <path d="M76.65,25.04c-1.69-.53-2.35-1.76-3.5-2.92-1.37-1.41-3.15-2.35-4.64-3.6-3.3-2.77-6.29-5.93-9.58-8.74-2.9-2.48-5.21-5.91-8.31-8.11-2.24-1.58-4.17-.54-6.55.19-2.89.91-5.93,2.21-8.9,2.74-2.36.42-4.27.21-6.78,1.65-1.44.85-3,1.47-4.63,1.82-4.49.91-6.8,3.41-9.91,6.19-2.41,2.16-4.79,4.38-7.23,6.5-1.31,1.14-5.19,3.15-6.5,5.02-.07.11-.12.24-.12.37,0,.13.03.27.09.38.07.12.16.21.28.27.12.06.25.09.38.08,5.02-.26,8.84-5.21,12.47-8.32,1.27-1.09,2.59-2.13,3.86-3.19.76-.65,1.52-1.3,2.28-1.95,1.24-1.09.83-.99,2.03-.67,2.74.72,5.58,3.97,7.43,5.93,1.77,1.87,3.23,4.01,4.86,6,1.82,2.28,4.05,3.93,6.04,5.93,2,2,3.79,6.87,7.14,7.2,1.47.14,4.07-1.56,5.54-2.07,1.85-.64,3.55-1.44,5.47-1.89,6.63-1.58,12.22-5.79,18.75-7.32.17-.04.32-.13.43-.26.11-.13.18-.3.18-.47,0-.17-.04-.34-.14-.48-.1-.14-.24-.25-.4-.3h-.05Z"/>
  </g>
  <g>
    <g>
      <path d="M323.9,14.58l.16.74,3.65.53s6.32-4.39,10.19-12.84l-3.65-.52s-3.11,4.66-5.55,6.46l.18.83s-2.73,3.56-4.98,4.81Z"/>
      <path d="M355.71,5.2l-1.68,3.91h1.35l1.06-2.48,1.27,2.48h7.27l-1.81-3.91h-7.47Z"/>
      <path d="M356.02,14.42h-1.35l-1.69,3.91h1.35l1.06-2.47,1.27,2.47h1.77v19.04s0,1.72-1.98,1.72h-5.18l1.06,3.69h7.37s2.41-.3,2.41-3.76v-20.68h4.67l-1.8-3.91h-8.97Z"/>
      <path d="M353.92,13.62l-1.81-3.91h-6.04v-5.7l-.98-1.31h-2.71v7.02h-4.71l-1.7,3.91h1.35l1.08-2.49,1.28,2.49h2.71v29.15h3.69V13.62h7.85Z"/>
      <path d="M336.71,15.68l-3.73-.83s-2.44,3.6-4.9,5.37l.17.84s-2.78,3.51-5.04,4.73l.15.72,3.64.59c.7-.46,1.36-.97,1.97-1.53v16.83h3.69v-20.72c1.52-1.88,2.88-3.89,4.07-6Z"/>
      <path d="M336.95,17.73c.1,15.42-2.96,19.78-2.96,19.78l3.31.96c3.68-5.79,2.81-20.75,2.81-20.75h-3.16Z"/>
      <path d="M355.55,33.81h-2.81c-.48,0-.62,0-.62-1.23v-13.53l-.96-1.32h-2.41v17.83s0,1.66,1.5,1.66h6.25l-.95-3.41Z"/>
      <path d="M349.69,7.98h3.36l-2.39-5.29h-3.36l2.39,5.29Z"/>
    </g>
    <path d="M270.52,40.71v2.07h3.67V11.73l-.97-1.31h-2.7v26.86h-11.81V4.49l-.97-1.31h-2.69v34.1h-11.85V11.73l-.97-1.31h-2.7v26.86l1.16,3.43h29.84Z"/>
    <g>
      <path d="M388.06,14.3v6.92h3.69v-6.37c7.04,4.84,15.48,7.27,15.48,7.27l3-2.14-.2-.72c-2.57-.08-6.62-1.99-6.62-1.99l-.22-.82c-1.45-.24-3.9-1.37-6.09-2.49h11.78l-1.45-3.13h-15.68v-2.89c3.98-.51,7.92-1.29,11.8-2.36l-2.24-2.92s-16.14,2.73-19.13,2.25l-.48.71s-4.45.54-6.91-.19l-.42.63,2.17,2.98s4.96,0,11.51-.66v2.47h-15.64l-1.08-.28-1.35,3.13,1.08.28.85-1.98,1.02,1.98h8.99c-2.17,1.12-4.65,2.26-6.09,2.49l-.22.82s-4.05,1.91-6.62,1.99l-.2.72,3,2.14s9.09-2.62,16.27-7.82Z"/>
      <path d="M407.89,30h-15.78v-.63l5.15-4.25h.93l-.26-.55-1.13-2.45h-16.45l-1.31,3.01h1.04l.83-1.91.98,1.91h11.09l-4.56,3.59v1.29h-16.61l-1.35,3.14h1.08l.85-1.98,1.02,1.98h15.01v4.62s0,1.21-1.38,1.21h-6.03l1.87,3.68h7.53s1.69-.21,1.69-2.63v-6.89h17.23l-1.44-3.13Z"/>
    </g>
    <g>
      <path d="M305.83,24.25v1.11l-.89.4v1.11l-.89.4v1.11h3.32s1.07-1.13,2.53-4.39l1.53,1.53,2.67-.85-3.2-3.2c.61-1.89,1.01-3.83,1.21-5.81h2.86s.05,0,.07.01.04.02.06.04c.02.02.03.04.04.06,0,.02.01.05.01.07v11.43s0,1.11,1,1.11h4.17l-.62-2.27h-1.87c-.32,0-.41,0-.41-.82v-10.07l-1.35-1.83h-3.79c.05-1.04.04-2.08-.03-3.12h-2.56c0,1.12-.04,2.15-.11,3.12h-4.62l1.16,2.26h3.22c-.16,1.2-.39,2.38-.69,3.55l-.74-.75-2.58.94,2.45,2.45c-.27.7-.62,1.38-1.04,2l-.9.39Z"/>
      <path d="M314.12,5.12l-1.16-2.52h-3.17l-1.1,2.52h-15l-1.1-2.52h-3.17l-1.16,2.52h-5.89l1.44,2.81h5.13l.35,1.47h3.17l-.35-1.47h18.16l-.35,1.47h3.17l.35-1.47h7.87l-1.3-2.81h-5.89Z"/>
      <path d="M286.56,31.75h31.59l-1.04-2.26h-31.71l1.16,2.26Z"/>
      <path d="M295.1,35.75h25.98l-1.04-2.26h-36.29l1.16,2.26h7.15c-.89.8-2.31,1.96-3.4,2.46v.54s-2.16,1.84-3.7,2.32v.48l2.19.81c.54-.25,1.07-.53,1.57-.84,2.87.15,14.3.59,24.47-1.12,2.2,1.85,3.74,2.29,3.74,2.29l2.19-.81v-.48c-1.55-.48-3.71-2.31-3.71-2.31v-.54c-1.13-.54-2.18-1.25-3.1-2.11l-2.23.72c.4.48.79.94,1.16,1.35-6.57.92-13.21,1.29-19.84,1.09,1.38-1.13,2.63-2.43,3.7-3.86Z"/>
      <path d="M283.08,26.38l1.31,2.17,18.67-1.28-1.19-2.18-6.99.48v-1.21h6.9l-1.04-2.26h-5.86v-2.24l-.66-.89h-1.82v3.12h-6.53c1.92-1.32,3.63-2.93,5.06-4.78h5.77v2.95c0,.11.02.22.06.33.04.1.11.2.19.27.08.08.18.14.28.18.1.04.22.06.33.05h5.97l-.54-1.94h-3.74c-.26,0-.35.02-.35-.22v-1.63h4.75l-1.04-2.26h-7.69v-1.45h6.96l-1.04-2.26h-5.92v-.65l-.66-.89h-1.83v1.53h-6.97l-.98,2.26h.76l.63-1.45.75,1.45h5.81v1.45h-8.9l-.99,2.26h.76l.63-1.45.75,1.45h3.12c-.89.77-2.15,1.78-3.15,2.23v.54s-2.16,1.84-3.71,2.31v.48l2.19.81c.82-.38,1.62-.83,2.37-1.34l1.03,2.01h5.87v1.38l-9.32.64Z"/>
    </g>
    <g>
      <path d="M195.51,22.94v15.23h2.63v-2.96h4.43v1.32h2.63v-18.25l-.7-.94h-1.93v.98h-4.43v-.04l-.58-.78c.77-3.19,1.08-6.48.94-9.76h8.2l-1.59-3.52h-11.12l-1.54,3.52h1.19l.98-2.25,1.13,2.25c-.08,9.92-3.14,14-3.14,14l-.94.42v1.18l-.94.42v1.17l-.94.42v1.18h3.5s.92-.95,2.21-3.6ZM202.57,20.72v12.09h-4.43v-12.09h4.43Z"/>
      <path d="M209.45,6.31l-.17,16.46c0,10.19-2.68,13.92-2.68,13.92l-.94.42v1.18l-.94.42v1.18l-.94.42v1.17h3.5s1.59-1.41,3.21-5.89c2.22-6.14,1.93-13.28,1.93-13.28l.05-16.07h20.69l-1.37-2.97h-8.61l-1.48-3.28h-3.56l1.48,3.28h-9.73l-.41.96h-.02v.05l-.89,2.03h.88Z"/>
      <path d="M219.11,7.37h-1.93v2.36h-3.9l1.23,2.39h2.67v2.82l.89,2.39h10.37l-.77-2.39v-2.82h4.67l-1.1-2.39h-3.56v-1.42l-.7-.94h-1.93v2.36h-5.23v-1.42l-.71-.94ZM225.03,12.12v2.82h-5.23v-2.82h5.23Z"/>
      <path d="M231.82,18.9h-19.13l1.23,2.39h19.01l-1.1-2.39Z"/>
      <path d="M230.86,35.26h.46v-12.98h-1.93l-.7.94h-12.13l-.7-.94h-1.93v12.98h16.93,0ZM228.69,28.04h-4.69v-2.19h4.69v2.19ZM221.6,25.85v2.19h-5.05v-2.19h5.05ZM216.56,30.43h5.05v2.19h-5.05v-2.19ZM224,32.63v-2.19h4.69v2.19h-4.69Z"/>
      <path d="M214.92,38.65s-2.28,1.95-3.93,2.45v.5l2.92,1.08c2.83-1.25,5.32-3.17,7.26-5.58l-3.31-.87c-.89.75-1.88,1.37-2.94,1.84v.57Z"/>
      <path d="M234.09,41.19c-1.64-.5-3.93-2.45-3.93-2.45v-.57c-1.06-.47-2.05-1.09-2.94-1.84l-3.31.87c1.94,2.41,4.43,4.33,7.26,5.58l2.92-1.08v-.5Z"/>
    </g>
  </g>
</svg>